# xmcd CD database file
#
# Track frame offsets:
#	187
#	20697
#	34654
#
# Disc length: 734 seconds
#
# Revision: 0
# Processed by: cddbd v1.5PL3 Copyright (c) Steve Scherf et al.
# Submitted via: CDex 1.51
#
DISCID=1c02dc03
DTITLE=GRASS ARCADE - BRAVE
DYEAR=1999
DGENRE=JPop
TTITLE0=BRAVE
TTITLE1=SO LONG
TTITLE2=BRAVE (カラオケ)
EXTD=YEAR: 1999
EXTT0=
EXTT1=
EXTT2=
PLAYORDER=
